<svg width="200" height="228" viewBox="0 0 200 228" fill="none" xmlns="http://www.w3.org/2000/svg">
<path fill-rule="evenodd" clip-rule="evenodd" d="M47.29 79.0386C49.7446 58.1809 67.4827 42 89 42C103.835 42 116.874 49.6914 124.346 61.304C127.975 60.4511 131.759 60 135.648 60C162.904 60 185 82.1619 185 109.5C185 136.838 162.904 159 135.648 159H53.0682C30.9391 159 13 141.007 13 118.812C13 98.5847 27.8988 81.8477 47.29 79.0386Z" fill="url(#paint0_linear)"/>
<path fill-rule="evenodd" clip-rule="evenodd" d="M86 135H125.056L102.994 168H118L75 220L86 180.5H75L86 135Z" fill="url(#paint1_linear)"/>
<defs>
<linearGradient id="paint0_linear" x1="13" y1="42" x2="13" y2="159" gradientUnits="userSpaceOnUse">
<stop stop-color="#A9D9FF"/>
<stop offset="1" stop-color="#7AC5FF"/>
</linearGradient>
<linearGradient id="paint1_linear" x1="75" y1="135" x2="75" y2="220" gradientUnits="userSpaceOnUse">
<stop stop-color="white"/>
<stop offset="1" stop-color="#FFF3BC"/>
</linearGradient>
</defs>
</svg>
